<svg xmlns="http://www.w3.org/2000/svg" viewBox="0 0 24 24" id="alipay"><path d="M7.89 13.27c1.17 0 3.04.59 5.13 1.47-1.19 1.56-3.09 3.42-5.53 3.42-2.79 0-3.23-1.58-3.27-2.52-.05-.82.51-2.37 3.67-2.37z"></path><path fill="#00A4E8" d="M24 16.32V2c0-1.1-.9-2-2-2H2C.9 0 0 .9 0 2v20c0 1.1.9 2 2 2h20c1.1 0 2-.9 2-2v-1.73c-2.46-1.37-5.92-3.23-9.19-4.74-1.72 2.36-4.51 4.34-7.97 4.34-3.78 0-5.02-2.42-5.2-4.09-.21-2.09.8-4.37 5.34-4.37 1.89 0 4.25.55 6.81 1.34.88-1.61 1.41-3.23 1.41-3.23H5.66v-.89h4.93V6.95H4.73V5.93h5.86v-2.7h2.73v2.7h5.86v1.02h-5.86v1.68h4.75s-.81 2.49-2.05 4.87c2.62.89 5.38 1.93 7.98 2.82z"></path><path fill="#00A4E8" d="M4.22 15.64c.04.94.48 2.52 3.27 2.52 2.44 0 4.34-1.86 5.53-3.42-2.09-.88-3.96-1.47-5.13-1.47-3.16 0-3.72 1.55-3.67 2.37z"></path></svg>