<svg xmlns="http://www.w3.org/2000/svg" width="48" height="48" fill="none" id="apple"><path fill="#fff" d="M0 24C0 10.745 10.745 0 24 0s24 10.745 24 24-10.745 24-24 24S0 37.255 0 24Z"></path><path fill="#0B0B0A" fill-rule="evenodd" d="M29.267 9.6c.251 1.707-.444 3.379-1.36 4.562-.98 1.268-2.67 2.25-4.307 2.198-.3-1.633.466-3.317 1.397-4.449 1.022-1.249 2.772-2.207 4.27-2.31Zm4.918 24.022c.844-1.294 1.16-1.947 1.815-3.407-4.766-1.812-5.53-8.588-.813-11.188-1.438-1.804-3.46-2.85-5.368-2.85-1.375 0-2.317.359-3.174.685-.713.272-1.368.521-2.163.521-.86 0-1.622-.273-2.42-.559-.875-.314-1.795-.644-2.936-.644-2.141 0-4.42 1.309-5.866 3.546-2.031 3.15-1.685 9.073 1.61 14.119 1.177 1.806 2.75 3.834 4.808 3.852.854.009 1.422-.246 2.037-.522.704-.315 1.468-.658 2.793-.665 1.332-.008 2.085.339 2.78.66.598.275 1.154.532 2 .523 2.06-.017 3.72-2.265 4.897-4.071Z" clip-rule="evenodd"></path></svg>