<svg xmlns="http://www.w3.org/2000/svg" data-name="16" viewBox="0 0 64 64" id="wechat"><path fill="#43c618" fill-rule="evenodd" d="m60,12c0-4.42-3.58-8-8-8H12C7.58,4,4,7.58,4,12v40c0,4.42,3.58,8,8,8h40c4.42,0,8-3.58,8-8V12h0Z"></path><path fill="#fff" fill-rule="evenodd" d="m26.27,37.05c0-6.46,6.2-11.72,13.82-11.72.27,0,.53.02.79.03-1.23-5.87-7.37-10.33-14.76-10.33-8.28,0-15,5.6-15,12.5,0,3.97,2.23,7.51,5.7,9.8.33.22-.17,1.66-.73,3.12-.14.33-.06.71.19.96s.63.32.96.18c1.63-1.16,3.48-2.39,3.88-2.27,1.56.46,3.25.71,5,.71.2,0,.41-.01.61-.02-.29-.95-.46-1.94-.46-2.96Zm4.97-15.52c1.1,0,2,.9,2,2s-.9,2-2,2-2-.9-2-2,.9-2,2-2Zm-10.12,4c-1.1,0-2-.9-2-2s.9-2,2-2,2,.9,2,2-.9,2-2,2Z"></path><path fill="#fff" fill-rule="evenodd" d="m52.88,37.05c0-5.81-5.66-10.52-12.63-10.52s-12.62,4.71-12.62,10.52,5.66,10.52,12.62,10.52c1.73,0,3.37-.29,4.88-.82.29-.1,1.67,1.09,2.83,2.15.18.1.41.1.59-.01.18-.11.28-.31.28-.52-.48-1.37-.95-2.93-.69-3.1,2.89-1.93,4.75-4.9,4.75-8.22Zm-16.75-1.52c-.97,0-1.75-.78-1.75-1.75s.78-1.75,1.75-1.75,1.75.78,1.75,1.75-.78,1.75-1.75,1.75Zm8.47,0c-.97,0-1.75-.78-1.75-1.75s.78-1.75,1.75-1.75,1.75.78,1.75,1.75-.78,1.75-1.75,1.75Z"></path></svg>